<svg xmlns="http://www.w3.org/2000/svg" width="256" height="256" viewBox="1 1 34 34" fill="none">
  <defs>
    <radialGradient id="b" cx="35%" cy="35%" r="60%"><stop offset="0%" stop-color="#5cf5d5"/><stop offset="100%" stop-color="#00a88a"/></radialGradient>
    <radialGradient id="c" cx="50%" cy="40%" r="55%"><stop offset="0%" stop-color="#7af8e0" stop-opacity="0.4"/><stop offset="100%" stop-color="#5cf5d5" stop-opacity="0"/></radialGradient>
    <linearGradient id="k" x1="0" y1="0" x2="1" y2="1"><stop offset="0%" stop-color="#ff9a6c"/><stop offset="50%" stop-color="#ff6b40"/><stop offset="100%" stop-color="#d04520"/></linearGradient>
  </defs>
  <circle cx="15" cy="18" r="12" fill="url(#b)"/>
  <ellipse cx="11" cy="22" rx="6" ry="5" fill="url(#c)"/>
  <ellipse cx="10" cy="18" rx="5" ry="8" fill="#00c9a0" opacity="0.12" transform="rotate(-15 10 18)"/>
  <path d="M7 7.5c1.8-3.5 5.5-5 9-3.2" stroke="#5cf5d5" stroke-width="2.5" stroke-linecap="round"/>
  <path d="M10 5.5c1.5-2.2 4.5-3.2 7-1.5" stroke="#7af8e0" stroke-width="2" stroke-linecap="round"/>
  <path d="M13.5 4.5c0.8-1.2 2.8-1.8 4-0.8" stroke="#9afae8" stroke-width="1.3" stroke-linecap="round"/>
  <path d="M25 13c3 0.5 5.2 2.8 4.5 5.8s-3.2 4.5-5.5 3.5c-1-.4-1.1-1.5-.5-2.6l1-2c.5-1 .3-2.8-.8-4" fill="url(#k)"/>
  <path d="M24.2 18.5c1.6 0 3.1-0.9 3-2.1" stroke="#b03818" stroke-width="0.7" stroke-linecap="round" opacity="0.4"/>
  <circle cx="27.2" cy="15.8" r="0.5" fill="#b03818" opacity="0.25"/>
  <circle cx="18" cy="15" r="4.2" fill="#050510"/>
  <circle cx="18" cy="15" r="3" fill="#0a0a1a"/>
  <circle cx="19.4" cy="13.5" r="1.6" fill="#fff"/>
  <circle cx="16.8" cy="16.2" r="0.55" fill="#fff" opacity="0.3"/>
  <circle cx="18" cy="15" r="4.2" fill="none" stroke="#00F0FF" stroke-width="0.3" opacity="0.25"/>
</svg>
